<?xml version="1.0" encoding="UTF-8" standalone="no"?> <svg id="Layer_1" data-name="Layer 1" xmlns="http://www.w3.org/2000/svg" viewBox="0 0 25 25"><title>Loading Circles_1</title><path id="Loading_Circles" data-name="Loading Circles" d="M12.5,7A3.5,3.5,0,1,1,16,3.5,3.5,3.5,0,0,1,12.5,7Zm0-6A2.5,2.5,0,1,0,15,3.5,2.5,2.5,0,0,0,12.5,1Zm0,24A3.5,3.5,0,1,1,16,21.5,3.5,3.5,0,0,1,12.5,25Zm0-6A2.5,2.5,0,1,0,15,21.5,2.5,2.5,0,0,0,12.5,19Zm8,2A3.5,3.5,0,1,1,24,17.5,3.5,3.5,0,0,1,20.5,21Zm0-6A2.5,2.5,0,1,0,23,17.5,2.5,2.5,0,0,0,20.5,15Zm0-3A3.5,3.5,0,1,1,24,8.5,3.5,3.5,0,0,1,20.5,12Zm0-6A2.5,2.5,0,1,0,23,8.5,2.5,2.5,0,0,0,20.5,6ZM4.5,21A3.5,3.5,0,1,1,8,17.5,3.5,3.5,0,0,1,4.5,21Zm0-6A2.5,2.5,0,1,0,7,17.5,2.5,2.5,0,0,0,4.5,15Zm0-3A3.5,3.5,0,1,1,8,8.5,3.5,3.5,0,0,1,4.5,12Zm0-6A2.5,2.5,0,1,0,7,8.5,2.5,2.5,0,0,0,4.5,6Z" fill="#0e1d25"/></svg>